<?xml version="1.0" encoding="UTF-8"?>
<svg width="14px" height="16px" viewBox="0 0 14 16" version="1.1" xmlns="http://www.w3.org/2000/svg" xmlns:xlink="http://www.w3.org/1999/xlink">
    <!-- Generator: Sketch 46.2 (44496) - http://www.bohemiancoding.com/sketch -->
    <title>考勤管理</title>
    <desc>Created with Sketch.</desc>
    <defs></defs>
    <g id="Page-1" stroke="none" stroke-width="1" fill="none" fill-rule="evenodd">
        <g id="人事事务/人事合同0" transform="translate(-23.000000, -509.000000)" fill="#000000">
            <g id="menu" transform="translate(0.000000, 60.000000)">
                <g id="menu1">
                    <g id="list">
                        <g id="考勤管理" transform="translate(0.000000, 427.000000)">
                            <g transform="translate(23.000000, 22.000000)">
                                <path d="M12,7.75777452 C13.2059857,8.56503586 14,9.93979195 14,11.5 C14,13.9852814 11.9852814,16 9.5,16 C8.42835168,16 7.44419589,15.6253999 6.67133283,15 L2,15 C0.8954305,15 1.3527075e-16,14.1045695 0,13 L0,2 L0,2 C-1.3527075e-16,0.8954305 0.8954305,2.02906125e-16 2,0 L2,0 L10,0 C11.1045695,-2.02906125e-16 12,0.8954305 12,2 L12,7.75777452 Z M11,7.25605856 L11,2 C11,1.44771525 10.5522847,1 10,1 L2,1 L2,1 C1.44771525,1 1,1.44771525 1,2 L1,13 C1,13.5522847 1.44771525,14 2,14 L5.75777452,14 C5.27913583,13.284951 5,12.4250733 5,11.5 C5,9.01471863 7.01471863,7 9.5,7 C10.0259531,7 10.5308316,7.09023133 11,7.25605856 Z M9.5,15 C11.4329966,15 13,13.4329966 13,11.5 C13,9.56700338 11.4329966,8 9.5,8 C7.56700338,8 6,9.56700338 6,11.5 C6,13.4329966 7.56700338,15 9.5,15 Z" id="Combined-Shape"></path>
                                <path d="M2.25293383,3 L5.60873908,3 C5.91635456,3 6.16803995,2.775 6.16803995,2.5 C6.16803995,2.225 5.91635456,2 5.60873908,2 L2.25293383,2 C1.94531835,2 1.69363296,2.225 1.69363296,2.5 C1.69188514,2.775 1.94357054,3 2.25293383,3 Z M7.2866417,4.5 C7.2866417,4.2258567 7.0349563,4 6.72559301,4 L2.25118602,4 C1.94357054,4 1.69013733,4.22429907 1.69013733,4.5 C1.69013733,4.7741433 1.94182272,5 2.25118602,5 L6.72559301,5 C7.0349563,5 7.2866417,4.77570093 7.2866417,4.5 Z M11.2017478,11.0083466 L9.99424744,11.0083466 L9.99424744,9.71450806 C9.99424744,9.40667808 9.80873908,9.14807129 9.50811486,9.14807129 C9.19001248,9.14807129 9.00337219,9.41078416 9.00337219,9.73651123 L9.00337219,11.5075531 C9.00337219,11.8153831 9.20749064,12.0035794 9.50811486,12.0035794 L11.2017478,12.0035794 C11.5111111,12.0035794 11.7605743,11.8243316 11.7605743,11.5075531 C11.7605743,11.1925643 11.5111111,11.0083466 11.2017478,11.0083466 Z" id="Shape" fill-rule="nonzero"></path>
                            </g>
                        </g>
                    </g>
                </g>
            </g>
        </g>
    </g>
</svg>